<?xml version="1.0" standalone="no"?>
<!DOCTYPE svg PUBLIC "-//W3C//DTD SVG 20010904//EN"
 "http://www.w3.org/TR/2001/REC-SVG-20010904/DTD/svg10.dtd">
<svg version="1.0" xmlns="http://www.w3.org/2000/svg"
 width="100.000000pt" height="100.000000pt" viewBox="0 0 100.000000 100.000000"
 preserveAspectRatio="xMidYMid meet">

<g transform="translate(0.000000,100.000000) scale(0.100000,-0.100000)"
fill="#000000" stroke="none">
<path d="M240 870 c-11 -11 -20 -33 -20 -50 0 -29 29 -70 50 -70 6 0 10 -17
10 -37 1 -54 30 -112 83 -163 26 -24 47 -50 47 -56 0 -7 -16 -26 -36 -42 -43
-36 -84 -113 -84 -159 0 -23 -5 -33 -15 -33 -48 0 -72 -83 -35 -120 19 -19 33
-20 263 -20 224 0 245 2 260 18 36 40 11 122 -36 122 -13 0 -17 9 -17 40 0 52
-27 104 -79 155 l-41 39 49 51 c56 56 81 106 81 161 0 27 7 41 25 56 19 15 25
29 25 57 0 70 -6 71 -273 71 -224 0 -238 -1 -257 -20z m498 -12 c15 -15 15
-61 0 -76 -9 -9 -77 -12 -245 -12 -219 0 -233 1 -243 19 -13 26 -13 54 2 69
17 17 469 17 486 0z m-408 -124 c0 -9 32 -46 70 -83 l70 -67 0 -111 0 -111
-61 -51 c-66 -56 -99 -65 -99 -28 0 51 23 100 71 150 27 28 49 58 49 65 0 8
-24 38 -54 66 -36 35 -58 66 -65 92 -16 56 -14 94 4 94 8 0 15 -7 15 -16z
m330 4 c0 -7 -33 -45 -72 -85 l-73 -73 -3 -109 -4 -109 61 -49 61 -48 -65 -3
c-36 -2 -95 -2 -131 0 l-67 3 57 45 56 45 0 113 0 114 -70 72 c-38 40 -70 78
-70 84 0 9 44 12 160 12 120 0 160 -3 160 -12z m40 -29 c0 -55 -21 -96 -80
-154 -28 -27 -50 -54 -50 -60 0 -6 21 -31 46 -55 52 -51 74 -93 74 -145 0 -50
-26 -46 -105 17 l-66 53 3 108 3 108 73 68 c39 37 72 75 72 84 0 9 7 17 15 17
11 0 15 -11 15 -41z m48 -481 c15 -15 15 -61 0 -76 -9 -9 -78 -12 -250 -12
-224 0 -238 1 -248 19 -13 26 -13 54 2 69 17 17 479 17 496 0z"/>
<path d="M413 843 c9 -2 23 -2 30 0 6 3 -1 5 -18 5 -16 0 -22 -2 -12 -5z"/>
<path d="M468 843 c7 -3 16 -2 19 1 4 3 -2 6 -13 5 -11 0 -14 -3 -6 -6z"/>
<path d="M600 841 l105 -6 6 -30 7 -30 1 31 c1 41 -9 44 -127 42 l-97 -2 105
-5z"/>
<path d="M298 163 c6 -2 18 -2 25 0 6 3 1 5 -13 5 -14 0 -19 -2 -12 -5z"/>
<path d="M353 163 c9 -2 23 -2 30 0 6 3 -1 5 -18 5 -16 0 -22 -2 -12 -5z"/>
<path d="M478 163 c45 -2 119 -2 165 0 45 1 8 3 -83 3 -91 0 -128 -2 -82 -3z"/>
</g>
</svg>
