<?xml version="1.0" standalone="no"?>
<!DOCTYPE svg PUBLIC "-//W3C//DTD SVG 20010904//EN"
 "http://www.w3.org/TR/2001/REC-SVG-20010904/DTD/svg10.dtd">
<svg version="1.0" xmlns="http://www.w3.org/2000/svg"
 width="64.000000pt" height="64.000000pt" viewBox="0 0 64.000000 64.000000"
 preserveAspectRatio="xMidYMid meet">

<g transform="translate(0.000000,64.000000) scale(0.100000,-0.100000)"
fill="#000000" stroke="none">
<path d="M280 605 c-15 -8 -19 -14 -10 -14 8 -1 21 3 29 8 10 7 45 -6 113 -40
54 -27 98 -51 98 -54 0 -3 -89 -5 -197 -5 l-198 1 58 31 c31 17 55 33 52 36
-2 3 -36 -12 -74 -32 -38 -20 -80 -36 -94 -36 -35 0 -52 -23 -32 -43 8 -9 15
-22 15 -31 0 -8 8 -19 17 -24 14 -8 16 -28 16 -132 0 -104 -2 -124 -16 -132
-9 -5 -17 -20 -17 -32 0 -13 -7 -26 -15 -30 -8 -3 -15 -17 -15 -31 l0 -25 310
0 310 0 0 25 c0 14 -7 28 -15 31 -8 4 -15 14 -15 24 0 10 -8 26 -17 36 -25 25
-25 243 0 268 9 10 17 23 17 30 0 8 7 19 15 26 21 18 1 40 -36 40 -16 0 -80
27 -142 60 -63 33 -118 60 -123 60 -5 -1 -20 -7 -34 -15z m328 -132 c3 -10
-59 -13 -287 -13 -253 0 -291 2 -291 15 0 13 36 15 287 13 218 -2 287 -6 291
-15z m-28 -43 c0 -19 -7 -20 -260 -20 -253 0 -260 1 -260 20 0 19 7 20 260 20
253 0 260 -1 260 -20z m-430 -40 c0 -5 -16 -10 -35 -10 -19 0 -35 5 -35 10 0
6 16 10 35 10 19 0 35 -4 35 -10z m54 -6 c8 -20 8 -208 0 -228 -8 -20 -44 -21
-45 -1 0 8 0 60 0 115 0 55 0 107 0 115 1 20 37 19 45 -1z m86 6 c0 -5 -16
-10 -35 -10 -19 0 -35 5 -35 10 0 6 16 10 35 10 19 0 35 -4 35 -10z m52 -12
c4 -20 3 -168 -1 -220 -2 -26 -37 -22 -45 5 -8 29 -8 185 0 215 4 12 14 22 24
22 11 0 20 -9 22 -22z m78 12 c0 -5 -16 -10 -35 -10 -19 0 -35 5 -35 10 0 6
16 10 35 10 19 0 35 -4 35 -10z m54 -6 c8 -20 8 -208 0 -228 -8 -21 -30 -21
-38 0 -8 20 -8 208 0 228 3 9 12 16 19 16 7 0 16 -7 19 -16z m86 6 c0 -5 -16
-10 -35 -10 -19 0 -35 5 -35 10 0 6 16 10 35 10 19 0 35 -4 35 -10z m-450
-120 c0 -60 -4 -100 -10 -100 -6 0 -10 40 -10 100 0 60 4 100 10 100 6 0 10
-40 10 -100z m35 50 c8 -56 -2 -150 -16 -150 -5 0 -9 45 -9 100 0 106 14 133
25 50z m95 -52 c0 -70 -3 -98 -10 -88 -17 26 -11 190 6 190 2 0 4 -46 4 -102z
m40 -4 c0 -56 -4 -94 -10 -94 -6 0 -10 40 -10 101 0 64 4 98 10 94 6 -3 10
-48 10 -101z m100 89 c1 -16 2 -16 12 2 11 19 11 19 19 0 9 -24 11 -131 3
-162 -12 -44 -24 -22 -26 45 l-2 67 -3 -67 c-6 -105 -23 -81 -23 32 0 60 4
100 10 100 6 0 10 -8 10 -17z m140 -89 c0 -89 -10 -121 -24 -71 -8 29 -8 106
0 146 12 58 24 20 24 -75z m30 6 c0 -60 -4 -100 -10 -100 -6 0 -10 40 -10 100
0 60 4 100 10 100 6 0 10 -40 10 -100z m-400 -120 c0 -5 -16 -10 -35 -10 -19
0 -35 5 -35 10 0 6 16 10 35 10 19 0 35 -4 35 -10z m140 0 c0 -5 -16 -10 -35
-10 -19 0 -35 5 -35 10 0 6 16 10 35 10 19 0 35 -4 35 -10z m130 0 c0 -5 -16
-10 -35 -10 -19 0 -35 5 -35 10 0 6 16 10 35 10 19 0 35 -4 35 -10z m140 0 c0
-5 -16 -10 -35 -10 -19 0 -35 5 -35 10 0 6 16 10 35 10 19 0 35 -4 35 -10z
m18 -41 c-3 -21 -6 -21 -220 -20 -142 1 -218 -2 -223 -8 -4 -8 69 -11 234 -11
234 0 241 -1 241 -20 0 -20 -7 -20 -290 -20 -283 0 -290 0 -290 20 0 16 7 20
33 20 29 1 30 2 15 14 -10 7 -18 21 -18 30 0 14 26 16 261 16 260 0 260 0 257
-21z"/>
<path d="M248 558 c-32 -17 -58 -35 -58 -39 0 -5 56 -9 125 -9 75 0 125 4 125
10 0 9 -111 70 -127 70 -4 0 -34 -15 -65 -32z m151 -24 c2 -2 -36 -4 -85 -4
l-89 1 45 23 45 24 40 -20 c22 -11 42 -22 44 -24z"/>
</g>
</svg>
